HIERARCHY
ROOT pelvis
{
	OFFSET 0.003123 -0.351407 0.012037
	CHANNELS 6 Xposition Yposition Zposition Zrotation Yrotation Xrotation 
	JOINT left_hip
	{
		OFFSET 0.058189 -0.092763 -0.026001
		CHANNELS 3 Zrotation Yrotation Xrotation
		JOINT left_knee
		{
			OFFSET 0.054695 -0.378753 -0.009396
			CHANNELS 3 Zrotation Yrotation Xrotation
			JOINT left_ankle
			{
				OFFSET -0.043453 -0.403059 -0.031876
				CHANNELS 3 Zrotation Yrotation Xrotation
				JOINT left_foot
				{
					OFFSET 0.047257 -0.057997 0.118216
					CHANNELS 3 Zrotation Yrotation Xrotation
					End Site
					{
						OFFSET 0.000000 0.000000 0.000000
					}
				}
			}
		}
	}
	JOINT right_hip
	{
		OFFSET -0.063267 -0.103908 -0.021250
		CHANNELS 3 Zrotation Yrotation Xrotation
		JOINT right_knee
		{
			OFFSET -0.044210 -0.362380 -0.016824
			CHANNELS 3 Zrotation Yrotation Xrotation
			JOINT right_ankle
			{
				OFFSET 0.015417 -0.410728 -0.020192
				CHANNELS 3 Zrotation Yrotation Xrotation
				JOINT right_foot
				{
					OFFSET -0.038812 -0.058328 0.119049
					CHANNELS 3 Zrotation Yrotation Xrotation
					End Site
					{
						OFFSET 0.000000 0.000000 0.000000
					}
				}
			}
		}
	}
	JOINT spine_1
	{
		OFFSET -0.002763 0.109891 -0.027618
		CHANNELS 3 Zrotation Yrotation Xrotation
		JOINT spine_2
		{
			OFFSET 0.009448 0.131853 -0.005940
			CHANNELS 3 Zrotation Yrotation Xrotation
			JOINT spine_3
			{
				OFFSET -0.011330 0.052235 0.028447
				CHANNELS 3 Zrotation Yrotation Xrotation
				JOINT neck
				{
					OFFSET -0.012164 0.165167 -0.031615
					CHANNELS 3 Zrotation Yrotation Xrotation
					JOINT head
					{
						OFFSET 0.024783 0.160452 0.020737
						CHANNELS 3 Zrotation Yrotation Xrotation
						End Site
						{
							OFFSET 0.000000 0.000000 0.000000
						}
					}
				}
				JOINT left_collar
				{
					OFFSET 0.046364 0.084944 -0.007220
					CHANNELS 3 Zrotation Yrotation Xrotation
					JOINT left_shoulder
					{
						OFFSET 0.119239 0.057728 -0.015461
						CHANNELS 3 Zrotation Yrotation Xrotation
						JOINT left_elbow
						{
							OFFSET 0.254123 -0.072151 -0.042459
							CHANNELS 3 Zrotation Yrotation Xrotation
							JOINT left_wrist
							{
								OFFSET 0.251987 0.023221 -0.002472
								CHANNELS 3 Zrotation Yrotation Xrotation
								JOINT left_index_1
								{
									OFFSET 0.101902 -0.008688 0.019351
									CHANNELS 3 Zrotation Yrotation Xrotation
									JOINT left_index_2
									{
										OFFSET 0.030149 -0.011154 0.001151
										CHANNELS 3 Zrotation Yrotation Xrotation
										JOINT left_index_3
										{
											OFFSET 0.006504 -0.021577 -0.002433
											CHANNELS 3 Zrotation Yrotation Xrotation
											End Site
											{
												OFFSET 0.000000 0.000000 0.000000
											}
										}
									}
								}
								JOINT left_middle_1
								{
									OFFSET 0.109398 -0.006328 -0.003981
									CHANNELS 3 Zrotation Yrotation Xrotation
									JOINT left_middle_2
									{
										OFFSET 0.026472 -0.015218 -0.004641
										CHANNELS 3 Zrotation Yrotation Xrotation
										JOINT left_middle_3
										{
											OFFSET 0.005022 -0.023347 -0.001911
											CHANNELS 3 Zrotation Yrotation Xrotation
											End Site
											{
												OFFSET 0.000000 0.000000 0.000000
											}
										}
									}
								}
								JOINT left_pinky_1
								{
									OFFSET 0.084047 -0.014539 -0.043750
									CHANNELS 3 Zrotation Yrotation Xrotation
									JOINT left_pinky_2
									{
										OFFSET 0.012124 -0.014448 -0.005375
										CHANNELS 3 Zrotation Yrotation Xrotation
										JOINT left_pinky_3
										{
											OFFSET 0.003798 -0.018853 0.000167
											CHANNELS 3 Zrotation Yrotation Xrotation
											End Site
											{
												OFFSET 0.000000 0.000000 0.000000
											}
										}
									}
								}
								JOINT left_ring_1
								{
									OFFSET 0.097444 -0.009268 -0.027345
									CHANNELS 3 Zrotation Yrotation Xrotation
									JOINT left_ring_2
									{
										OFFSET 0.023561 -0.016057 -0.001895
										CHANNELS 3 Zrotation Yrotation Xrotation
										JOINT left_ring_3
										{
											OFFSET 0.004257 -0.023548 0.000814
											CHANNELS 3 Zrotation Yrotation Xrotation
											End Site
											{
												OFFSET 0.000000 0.000000 0.000000
											}
										}
									}
								}
								JOINT left_thumb_1
								{
									OFFSET 0.040636 -0.017977 0.025611
									CHANNELS 3 Zrotation Yrotation Xrotation
									JOINT left_thumb_2
									{
										OFFSET 0.021637 -0.017639 0.011623
										CHANNELS 3 Zrotation Yrotation Xrotation
										JOINT left_thumb_3
										{
											OFFSET 0.024002 -0.008356 0.006548
											CHANNELS 3 Zrotation Yrotation Xrotation
											End Site
											{
												OFFSET 0.000000 0.000000 0.000000
											}
										}
									}
								}
							}
						}
					}
				}
				JOINT right_collar
				{
					OFFSET -0.047695 0.084339 -0.013400
					CHANNELS 3 Zrotation Yrotation Xrotation
					JOINT right_shoulder
					{
						OFFSET -0.102578 0.053524 -0.012669
						CHANNELS 3 Zrotation Yrotation Xrotation
						JOINT right_elbow
						{
							OFFSET -0.271150 -0.036492 -0.026467
							CHANNELS 3 Zrotation Yrotation Xrotation
							JOINT right_wrist
							{
								OFFSET -0.249267 -0.004533 -0.015325
								CHANNELS 3 Zrotation Yrotation Xrotation
								JOINT right_index_1
								{
									OFFSET -0.099881 -0.011783 0.019600
									CHANNELS 3 Zrotation Yrotation Xrotation
									JOINT right_index_2
									{
										OFFSET -0.030148 -0.011154 0.001151
										CHANNELS 3 Zrotation Yrotation Xrotation
										JOINT right_index_3
										{
											OFFSET -0.006505 -0.021577 -0.002432
											CHANNELS 3 Zrotation Yrotation Xrotation
											End Site
											{
												OFFSET 0.000000 0.000000 0.000000
											}
										}
									}
								}
								JOINT right_middle_1
								{
									OFFSET -0.107376 -0.009422 -0.003734
									CHANNELS 3 Zrotation Yrotation Xrotation
									JOINT right_middle_2
									{
										OFFSET -0.026472 -0.015218 -0.004641
										CHANNELS 3 Zrotation Yrotation Xrotation
										JOINT right_middle_3
										{
											OFFSET -0.005022 -0.023347 -0.001911
											CHANNELS 3 Zrotation Yrotation Xrotation
											End Site
											{
												OFFSET 0.000000 0.000000 0.000000
											}
										}
									}
								}
								JOINT right_pinky_1
								{
									OFFSET -0.082027 -0.017634 -0.043503
									CHANNELS 3 Zrotation Yrotation Xrotation
									JOINT right_pinky_2
									{
										OFFSET -0.012123 -0.014448 -0.005374
										CHANNELS 3 Zrotation Yrotation Xrotation
										JOINT right_pinky_3
										{
											OFFSET -0.003798 -0.018852 0.000167
											CHANNELS 3 Zrotation Yrotation Xrotation
											End Site
											{
												OFFSET 0.000000 0.000000 0.000000
											}
										}
									}
								}
								JOINT right_ring_1
								{
									OFFSET -0.095423 -0.012362 -0.027099
									CHANNELS 3 Zrotation Yrotation Xrotation
									JOINT right_ring_2
									{
										OFFSET -0.023561 -0.016057 -0.001895
										CHANNELS 3 Zrotation Yrotation Xrotation
										JOINT right_ring_3
										{
											OFFSET -0.004257 -0.023548 0.000816
											CHANNELS 3 Zrotation Yrotation Xrotation
											End Site
											{
												OFFSET 0.000000 0.000000 0.000000
											}
										}
									}
								}
								JOINT right_thumb_1
								{
									OFFSET -0.038613 -0.021074 0.025861
									CHANNELS 3 Zrotation Yrotation Xrotation
									JOINT right_thumb_2
									{
										OFFSET -0.021636 -0.017639 0.011623
										CHANNELS 3 Zrotation Yrotation Xrotation
										JOINT right_thumb_3
										{
											OFFSET -0.024004 -0.008353 0.006547
											CHANNELS 3 Zrotation Yrotation Xrotation
											End Site
											{
												OFFSET 0.000000 0.000000 0.000000
											}
										}
									}
								}
							}
						}
					}
				}
			}
		}
	}
}
MOTION
Frames: 4
Frame Time: 0.050000
0.328865 0.997189 0.083740 -103.437551 -54.538759 75.621954 52.657112 21.259677 24.485032 -4.096710 2.173506 6.920627 -11.433026 -8.596526 19.991371 0.000000 0.000000 0.000000 -66.537782 29.175276 -35.713108 8.342068 0.694522 6.670110 19.115078 -8.963707 57.392389 0.000000 0.000000 0.000000 -6.445518 1.606686 23.212009 10.540371 -1.545656 -14.356184 4.624451 -17.438344 29.085467 4.285604 -0.447769 3.419097 0.000000 0.000000 0.000000 -26.569882 10.408187 15.826899 -178.335340 -81.713333 152.194962 -164.441454 -76.398176 -167.820277 14.351320 2.260624 -7.198264 8.152941 6.025018 2.183563 39.964079 -3.410935 -4.022086 0.000000 0.000000 0.000000 10.158472 -4.397724 -1.157537 30.897041 -2.138467 3.542192 0.000000 0.000000 0.000000 37.344830 -18.673894 -23.231806 18.513729 0.748492 10.165011 0.000000 0.000000 0.000000 16.788490 -7.924547 -5.861794 30.161297 1.262721 2.211167 0.000000 0.000000 0.000000 33.896908 20.729072 5.182603 -21.461850 -11.948086 3.586612 0.000000 0.000000 0.000000 -6.066627 6.790521 1.938613 65.048511 -18.493186 -42.705088 23.051084 5.643620 -1.458239 -4.046834 3.329527 40.399234 9.008839 0.206619 -0.944847 -30.644902 6.010042 -2.667893 0.000000 0.000000 0.000000 0.864052 4.402857 -2.476428 -22.267087 3.382886 11.014938 0.000000 0.000000 0.000000 -21.555821 3.754053 1.203376 -7.039563 -1.534471 10.451423 0.000000 0.000000 0.000000 -5.770331 -2.077879 0.592652 -13.730811 0.867332 2.711507 0.000000 0.000000 0.000000 10.360930 -5.767252 2.983662 3.033500 1.144134 0.310378 0.000000 0.000000 0.000000 
0.323212 0.992676 0.077141 -96.195364 -55.650410 66.961681 49.089852 18.329738 24.637229 -4.284268 2.034550 5.728566 -4.265946 -2.214110 14.044455 0.000000 0.000000 0.000000 -70.559587 28.021825 -38.215080 11.320840 0.531425 12.644883 16.307275 -9.772317 53.210349 0.000000 0.000000 0.000000 -8.908568 3.178767 25.907673 9.534359 -3.091626 -15.325424 7.321842 -14.797711 26.876408 5.898194 -0.935463 0.581315 0.000000 0.000000 0.000000 -25.301648 10.006167 11.940741 -130.889222 -76.444239 93.771951 -135.669700 -68.593893 151.402015 13.457611 1.365985 -0.036539 3.791256 6.537006 2.349401 37.840688 -3.841277 -4.364176 0.000000 0.000000 0.000000 5.476975 -3.517160 -1.172698 28.690307 -2.393002 -0.550918 0.000000 0.000000 0.000000 43.231156 -21.090160 -26.368356 17.076431 0.321098 5.716584 0.000000 0.000000 0.000000 17.003441 -9.844449 -7.185517 25.687875 0.762168 -2.713286 0.000000 0.000000 0.000000 32.209078 21.017531 7.882273 -20.733605 -12.101056 3.335631 0.000000 0.000000 0.000000 -6.033268 3.995112 1.603502 68.983860 -20.417080 -44.147171 17.879401 0.663118 -1.420037 -1.289994 7.397564 42.859794 9.461796 -0.210311 -0.923822 -24.662597 6.368560 -5.511996 0.000000 0.000000 0.000000 -2.467324 -0.754489 0.663219 -2.437594 3.909950 -20.007510 0.000000 0.000000 0.000000 -31.991786 1.349397 2.016571 25.301325 -2.751158 -19.040267 0.000000 0.000000 0.000000 -10.428035 -2.867206 0.299958 15.296629 -1.113377 -22.682485 0.000000 0.000000 0.000000 22.308735 -4.728287 0.328103 -22.073913 -11.736411 -6.091468 0.000000 0.000000 0.000000 
0.323212 0.989452 0.077141 -95.536490 -55.757560 64.904689 52.089418 19.263084 25.085906 -5.475814 2.484084 7.376115 -7.384168 -5.302912 16.322529 0.000000 0.000000 0.000000 -79.627133 27.354991 -46.442222 32.435873 1.046483 15.479685 10.685836 -10.639121 44.275793 0.000000 0.000000 0.000000 -9.772204 4.357964 27.616024 8.465226 -3.845819 -17.711649 5.358948 -15.303177 29.457688 7.859833 -1.024515 4.724394 0.000000 0.000000 0.000000 -21.539905 8.852226 11.156380 -132.010774 -74.784508 97.063737 -132.762126 -72.742890 148.605385 18.635523 -2.032671 -4.794524 9.021804 6.290267 2.251820 38.612344 -3.643211 1.974707 0.000000 0.000000 0.000000 9.478816 -5.020016 -1.555545 33.394114 -2.746509 5.128453 0.000000 0.000000 0.000000 42.275494 -21.163517 -28.268210 16.536534 0.846847 10.132927 0.000000 0.000000 0.000000 19.197040 -9.762955 -7.307359 31.337609 1.139367 0.254287 0.000000 0.000000 0.000000 36.742542 26.300378 14.050290 -22.469720 -16.126136 3.210559 0.000000 0.000000 0.000000 -2.258378 7.072094 0.119862 63.772035 -24.619670 -40.864419 25.232530 3.067472 -1.952364 -3.531096 3.219609 42.935326 8.191638 -1.944337 -0.142090 -12.060877 10.766559 -18.375527 0.000000 0.000000 0.000000 0.254390 1.195189 -0.680915 7.168522 2.799672 -20.876726 0.000000 0.000000 0.000000 -30.907351 4.394819 -1.647459 30.173705 -8.071960 -14.945583 0.000000 0.000000 0.000000 -10.344232 1.643277 -1.804802 25.135867 -5.904563 -15.317326 0.000000 0.000000 0.000000 18.029094 1.697285 -5.072823 -8.594860 -18.391172 2.955903 0.000000 0.000000 0.000000 
0.310020 0.994610 0.075821 -90.576182 -56.152836 61.260049 52.370062 18.730769 25.103809 -7.320953 2.911722 6.377527 -10.075238 -8.214083 17.505798 0.000000 0.000000 0.000000 -94.128883 27.508642 -51.615608 63.607630 2.373839 5.409090 -4.422256 -20.404134 33.569639 0.000000 0.000000 0.000000 -8.659264 3.075133 26.192238 7.350542 -4.178785 -18.035006 0.887194 -16.055760 31.114286 8.559214 -1.274138 4.494042 0.000000 0.000000 0.000000 -22.984709 9.898650 11.408594 -125.752216 -77.655706 92.170664 -136.257430 -68.820265 152.665600 20.708945 -3.259114 -0.302389 9.120050 6.346868 2.337730 35.055572 -3.758004 0.753893 0.000000 0.000000 0.000000 10.153281 -4.382547 -1.068764 25.217115 -2.123956 4.939861 0.000000 0.000000 0.000000 40.076528 -21.775586 -27.232159 13.253731 1.049490 11.630861 0.000000 0.000000 0.000000 17.442016 -9.482302 -6.806800 22.789935 0.617558 2.262612 0.000000 0.000000 0.000000 35.221959 25.801215 14.946850 -19.501571 -15.309578 2.325182 0.000000 0.000000 0.000000 0.187505 7.714756 -2.061680 62.623899 -24.217770 -38.412729 26.916363 3.992136 -2.063672 -6.326758 0.247284 40.376124 9.972625 -5.699679 1.434286 -16.663808 9.979904 -14.036472 0.000000 0.000000 0.000000 1.301967 4.726654 -2.628047 -2.355356 0.736640 -2.977105 0.000000 0.000000 0.000000 -27.227438 12.409071 -5.763648 8.413300 -4.297887 -11.229432 0.000000 0.000000 0.000000 -6.692394 -0.759349 -0.561763 11.746370 -0.735267 -29.024562 0.000000 0.000000 0.000000 11.662974 -9.678473 5.294442 -11.137118 1.370971 -7.720818 0.000000 0.000000 0.000000 
